# xmcd CD database file
#
# Track frame offsets:
#	180
#	13304
#	25380
#	39278
#	53056
#	65457
#	77989
#	91436
#	121732
#	135530
#	149692
#	165533
#	180702
#	192972
#	207485
#	221855
#	236748
#	251179
#	264140
#	276325
#	288738
#	301795
#
# Disc length: 4195 seconds
#
# Revision: 1
# Processed by: cddbd v1.5.2PL0 Copyright (c) Steve Scherf et al.
# Submitted via: CDex 1.70beta2
#
DISCID=51106116
DTITLE=Various Artist - river walk vol.-2 - bring back the dixie cd-3
DYEAR=2006
DGENRE=Jazz
TTITLE0=louis armstrong - mahogany hall stomp
TTITLE1=ross de luxe syncopaters - don't you wanne know?
TTITLE2=kid ory - ory's creole trombone
TTITLE3=luis russell's hot six - sweet mumtaz
TTITLE4=louis armstrong and earl hines - weather bird
TTITLE5=original dixieland jazz band - bluin' the blues
TTITLE6=original dixieland jazz band - sensation rag
TTITLE7=louis armstrong - new orleans function
TTITLE8=louis armstrong - aligator crawl
TTITLE9=red nichols - avalon
TTITLE10=bobby hacket - ja-da
TTITLE11=louis dumaine's jazzola eight - pretty audrey
TTITLE12=jack pettis and his pets - freshman hop
TTITLE13=louis armstrong - willie the weeper
TTITLE14=paul howard's quality serenaders - the ramble
TTITLE15=mc kinney's cotton pickers - i found a dream
TTITLE16=j.c. higginbotham - casa loma stomp
TTITLE17=dixon's jazz maniacs - crazy quilt
TTITLE18=red nichols - keep a song in your soul
TTITLE19=kid ory - south
TTITLE20=johnny dodd's orchestra - too tight
TTITLE21=buster beiley - more than that
EXTD=YEAR: 2006
EXTT0=
EXTT1=
EXTT2=
EXTT3=
EXTT4=
EXTT5=
EXTT6=
EXTT7=
EXTT8=
EXTT9=
EXTT10=
EXTT11=
EXTT12=
EXTT13=
EXTT14=
EXTT15=
EXTT16=
EXTT17=
EXTT18=
EXTT19=
EXTT20=
EXTT21=
PLAYORDER=
